# xmcd
#
# Track frame offsets:
#	150
#	13165
#	32485
#	44657
#	68457
#	86237
#	103315
#	122120
#	135380
#	152395
#	167415
#	181490
#
# Disc length: 2606 seconds
#
# Revision: 1
# Processed by: cddbd v1.5.1PL0 Copyright (c) Steve Scherf et al.
# Submitted via: audiograbber 1.83.01
#
DISCID=970a2c0c
DTITLE=Jay B Douglas - As Promised
DYEAR=1900
DGENRE=Country
TTITLE0=I Was Born
TTITLE1=Working Man
TTITLE2=River Lady
TTITLE3=Let The Canefields Burn
TTITLE4=Storms Never Last
TTITLE5=Headed For The Future
TTITLE6=Brindabella Lass
TTITLE7=Lighthouse
TTITLE8=Tryin' To Outrun The Wind
TTITLE9=Music Man
TTITLE10=The Shepherds Farewell
TTITLE11=If There Were No Dreams
EXTD=
EXTT0=
EXTT1=
EXTT2=
EXTT3=
EXTT4=
EXTT5=
EXTT6=
EXTT7=
EXTT8=
EXTT9=
EXTT10=
EXTT11=
PLAYORDER=
